<?xml version="1.0" encoding="UTF-8" standalone="no"?>
<svg
   id="svg8"
   version="1.1"
   viewBox="0 0 200 200"
   height="200"
   width="200">
  <g
     id="layer1">
    <path
       id="path1526"
       style="display:inline;fill:#fa8072;fill-opacity:1;stroke:none;stroke-width:2;stroke-linecap:round;stroke-linejoin:miter;stroke-miterlimit:10;stroke-dasharray:none;stroke-opacity:1;paint-order:markers stroke fill"
       d="m 144.99805,51 c -0.10633,0 -0.21028,0.0089 -0.31641,0.0098 -0.18145,0.0016 -0.36363,-0.0099 -0.54492,-0.0059 -0.33753,0.0076 -0.67292,0.03861 -1.00977,0.05469 -0.35702,0.01656 -0.71387,0.03269 -1.06836,0.05859 -0.4271,0.03184 -0.85193,0.07565 -1.27734,0.121094 -0.44246,0.04664 -0.88425,0.09526 -1.32227,0.15625 -0.33445,0.04699 -0.667,0.102826 -1,0.158203 -0.51541,0.08521 -1.02856,0.174531 -1.5371,0.279297 -0.29236,0.06037 -0.58217,0.130419 -0.87305,0.197265 -0.51173,0.117521 -1.02137,0.239985 -1.52539,0.376953 -0.31681,0.08595 -0.63068,0.179752 -0.94532,0.273438 -0.46858,0.139923 -0.93527,0.282991 -1.39648,0.439453 -0.35704,0.120626 -0.7108,0.250189 -1.06445,0.380859 -0.39832,0.147885 -0.79527,0.298913 -1.1875,0.458985 -0.42344,0.171877 -0.84207,0.354606 -1.25977,0.541015 -0.28658,0.128621 -0.57249,0.257479 -0.85547,0.392579 -0.51072,0.242455 -1.01479,0.497403 -1.51562,0.761718 -0.0984,0.05222 -0.2009,0.09738 -0.29883,0.150391 v 0.01172 c -6.31146,3.399776 -11.79684,8.519205 -15.64453,15.183593 -3.5106,6.080521 -5.35938,12.978834 -5.35938,20 v 79.996087 c 0,5.52263 4.47738,10 10,10 5.52263,0 10,-4.47737 10,-10 v -45.35742 c 0.001,7.3e-4 0.003,9.5e-4 0.004,0.002 V 91.158203 c -4.1e-4,-0.05295 -0.004,-0.105151 -0.004,-0.158203 0,-2.17885 0.3598,-4.270916 1.00391,-6.234375 v 0.0098 c 0.31351,-0.957391 0.70266,-1.879828 1.15039,-2.767578 0.0237,-0.04701 0.0443,-0.09578 0.0684,-0.142578 0.18924,-0.367944 0.39456,-0.725822 0.60547,-1.080078 0.0872,-0.146194 0.17488,-0.291796 0.26562,-0.435547 0.20569,-0.326282 0.41894,-0.647736 0.64258,-0.960938 0.10188,-0.142439 0.20897,-0.280303 0.31446,-0.419922 0.23165,-0.307124 0.46432,-0.613272 0.71289,-0.90625 0.0887,-0.104309 0.18464,-0.202238 0.27539,-0.304687 0.47163,-0.533422 0.97269,-1.03918 1.49804,-1.519531 0.16755,-0.152913 0.33122,-0.309817 0.50391,-0.457032 0.2408,-0.205655 0.49171,-0.399542 0.74219,-0.59375 0.21458,-0.166048 0.43095,-0.328943 0.65234,-0.486328 0.24919,-0.177492 0.50227,-0.349472 0.75977,-0.515625 0.2408,-0.155061 0.48663,-0.30241 0.73437,-0.447265 0.24397,-0.142937 0.4859,-0.28914 0.73633,-0.421875 0.4169,-0.220501 0.84363,-0.424004 1.27734,-0.615235 0.19917,-0.08801 0.40099,-0.170326 0.60352,-0.251953 0.42709,-0.171747 0.85969,-0.334038 1.30078,-0.476562 0.21788,-0.07055 0.44101,-0.128213 0.66211,-0.191407 0.3662,-0.104429 0.73492,-0.201405 1.10937,-0.285156 0.32888,-0.07373 0.65739,-0.147799 0.99219,-0.205078 0.0671,-0.01145 0.13386,-0.02437 0.20117,-0.03516 0.46403,-0.07448 0.93403,-0.131899 1.40821,-0.173828 0.10053,-0.0089 0.20177,-0.01412 0.30273,-0.02148 0.48736,-0.03569 0.97811,-0.06045 1.47461,-0.06055 0.3451,0 0.68849,0.0081 1.0293,0.02539 0.001,6.5e-5 0.003,-6.6e-5 0.004,0 0.3395,0.01727 0.67691,0.04413 1.01172,0.07813 0.001,1.3e-4 0.003,-1.31e-4 0.004,0 0.33479,0.03406 0.66639,0.07658 0.99609,0.126953 0.001,1.94e-4 0.003,-1.94e-4 0.004,0 0.32968,0.05043 0.65629,0.109453 0.98047,0.175781 1.3017,0.266338 2.5577,0.658187 3.7539,1.164063 0.002,7.97e-4 0.004,0.0012 0.006,0.002 7.17421,3.036598 12.20856,10.142147 12.21094,18.421875 h 0.004 c 0,0.002 0,0.0039 0,0.0059 0,11.045286 -8.95475,19.998046 -20,19.998046 -3.64549,0 -7.05315,-0.99147 -9.9961,-2.69531 -0.006,0.002 -0.0135,0.005 -0.0195,0.008 -0.0243,-0.014 -0.048,-0.0289 -0.0723,-0.043 -0.71189,-0.41202 -1.41717,-0.83364 -2.11719,-1.26367 -0.15142,-0.093 -0.30032,-0.18942 -0.45117,-0.28321 -0.59373,-0.36936 -1.1846,-0.74288 -1.76953,-1.125 -0.13333,-0.087 -0.26557,-0.17599 -0.39844,-0.26367 -0.59302,-0.39167 -1.1819,-0.78879 -1.76563,-1.19336 -0.13427,-0.093 -0.26857,-0.18562 -0.40234,-0.27929 -0.64993,-0.4554 -1.29551,-0.91756 -1.93359,-1.38868 -0.024,-0.0177 -0.0483,-0.035 -0.0723,-0.0527 v 23.7539 c 5.65479,3.06243 12.11553,4.82618 18.99805,4.82618 22.09048,0 39.99804,-17.90752 39.99804,-39.998046 0,-0.870892 -0.0389,-1.732789 -0.0937,-2.589843 -0.39452,-6.167425 -2.18591,-11.951086 -5.0625,-17.044922 -0.0437,-0.07783 -0.0886,-0.154861 -0.13281,-0.232422 -0.35339,-0.616103 -0.72078,-1.221468 -1.10547,-1.816406 -0.0824,-0.128122 -0.16213,-0.257503 -0.24609,-0.384766 -0.43122,-0.650512 -0.87626,-1.290985 -1.34375,-1.914062 -0.12028,-0.160874 -0.25018,-0.315376 -0.37305,-0.47461 -0.33771,-0.436279 -0.68202,-0.867396 -1.03711,-1.289062 -0.22214,-0.264319 -0.45009,-0.524085 -0.67968,-0.783204 -0.28729,-0.323831 -0.58141,-0.640766 -0.87891,-0.955078 -0.23861,-0.252158 -0.4728,-0.507318 -0.71875,-0.753906 -0.50576,-0.50736 -1.02634,-1.00071 -1.5586,-1.480469 -0.18968,-0.170604 -0.38658,-0.334554 -0.58007,-0.501953 -0.43173,-0.374472 -0.87073,-0.739719 -1.31836,-1.095703 -0.18928,-0.150008 -0.37773,-0.300257 -0.57031,-0.447265 -1.34478,-1.030398 -2.75685,-1.976293 -4.22852,-2.832032 -0.0252,-0.01462 -0.049,-0.03035 -0.0742,-0.04492 -0.0269,-0.01556 -0.0551,-0.02748 -0.082,-0.04297 -1.56632,-0.901388 -3.19801,-1.702597 -4.88867,-2.388672 -0.0641,-0.02608 -0.12917,-0.04849 -0.19336,-0.07422 -0.73662,-0.294461 -1.48277,-0.567202 -2.24024,-0.818359 -0.11153,-0.03713 -0.22227,-0.07719 -0.33398,-0.113282 -0.79782,-0.256675 -1.60502,-0.492172 -2.42383,-0.699218 -0.13249,-0.03369 -0.26577,-0.05952 -0.39844,-0.0918 -0.62539,-0.151324 -1.25608,-0.288617 -1.89257,-0.410157 -0.30846,-0.05927 -0.61674,-0.114201 -0.92579,-0.166015 -0.47945,-0.07987 -0.9622,-0.148291 -1.44726,-0.210938 -0.32886,-0.04276 -0.65718,-0.09055 -0.98633,-0.125 -0.70331,-0.07311 -1.41134,-0.129837 -2.125,-0.166015 -0.005,-2.62e-4 -0.0104,2.6e-4 -0.0156,0 -0.37538,-0.01892 -0.7499,-0.021 -1.125,-0.0293 -0.30617,-0.0069 -0.61014,-0.02344 -0.91797,-0.02344 z" />
    <path
       id="path64"
       d="M 54.998047,51 C 32.90751,51 15,68.909502 15,91 c 0,22.09053 17.90751,39.99805 39.998047,39.99805 18.718205,0 34.427278,-12.85955 38.789062,-30.22461 -0.823964,-0.977413 -1.639512,-1.962616 -2.43164,-2.968752 C 85.409369,90.25212 78.345268,83.668895 70.423828,78.271485 73.281219,81.729933 74.998047,86.163737 74.998047,91 c 0,11.04529 -8.954751,19.99805 -20,19.99805 C 43.952763,110.99805 35,102.04529 35,91 35,79.954751 43.952763,71 54.998047,71 c 3.99393,0 7.705409,1.184001 10.828125,3.201172 0.01178,-0.003 0.02338,-0.0067 0.03516,-0.0098 10.101869,5.97547 19.015464,13.767824 26.279297,22.99414 3.624619,4.603878 7.592272,8.907928 11.855461,12.890628 V 91 c 0,-3.214019 0.39966,-6.397705 1.13868,-9.498047 C 96.608759,71.465554 86.421106,62.954484 74.998047,56.359375 c -0.02994,-0.01729 -0.06175,-0.02798 -0.0918,-0.04492 C 69.043519,52.938391 62.249917,51 54.998047,51 Z"
       style="display:inline;fill:#72c1fa;fill-opacity:1;stroke:none;stroke-width:2;stroke-linecap:round;stroke-linejoin:round;stroke-miterlimit:10;stroke-dasharray:none;stroke-opacity:1;paint-order:stroke markers fill" />
    <path
       id="path62"
       d="m 94.572266,101.69531 c -1.854074,6.86057 -5.437045,13.01346 -10.263672,17.95117 5.357173,-3.82391 10.36597,-8.10903 14.986328,-12.79296 -1.623737,-1.67052 -3.199595,-3.38966 -4.722656,-5.15821 z"
       style="display:inline;fill:#72c1fa;fill-opacity:1;stroke:none;stroke-width:2;stroke-linecap:round;stroke-linejoin:round;stroke-miterlimit:10;stroke-dasharray:none;stroke-opacity:1;paint-order:stroke markers fill" />
    <path
       id="path967"
       d="m 115.75,62.314453 c -5.37926,3.836243 -10.40868,8.135851 -15.05078,12.833985 1.62339,1.671491 3.19639,3.39263 4.71875,5.162109 0.9235,-3.418255 2.28681,-6.718054 4.07226,-9.810547 1.7673,-3.061039 3.88809,-5.782893 6.25977,-8.185547 z"
       style="display:inline;fill:#72c1fa;fill-opacity:1;stroke:none;stroke-width:2;stroke-linecap:round;stroke-linejoin:round;stroke-miterlimit:10;stroke-dasharray:none;stroke-opacity:1;paint-order:stroke markers fill" />
  </g>
</svg>
